<?xml version="1.0" encoding="utf-8" standalone="no"?>
<!DOCTYPE svg PUBLIC "-//W3C//DTD SVG 1.1//EN"
  "http://www.w3.org/Graphics/SVG/1.1/DTD/svg11.dtd">
<svg xmlns:xlink="http://www.w3.org/1999/xlink" width="652.869375pt" height="456.532969pt" viewBox="0 0 652.869375 456.532969" xmlns="http://www.w3.org/2000/svg" version="1.1">
 <metadata>
  <rdf:RDF xmlns:dc="http://purl.org/dc/elements/1.1/" xmlns:cc="http://creativecommons.org/ns#" xmlns:rdf="http://www.w3.org/1999/02/22-rdf-syntax-ns#">
   <cc:Work>
    <dc:type rdf:resource="http://purl.org/dc/dcmitype/StillImage"/>
    <dc:date>2024-10-28T18:08:25.829254</dc:date>
    <dc:format>image/svg+xml</dc:format>
    <dc:creator>
     <cc:Agent>
      <dc:title>Matplotlib v3.7.2, https://matplotlib.org/</dc:title>
     </cc:Agent>
    </dc:creator>
   </cc:Work>
  </rdf:RDF>
 </metadata>
 <defs>
  <style type="text/css">*{stroke-linejoin: round; stroke-linecap: butt}</style>
 </defs>
 <g id="figure_1">
  <g id="patch_1">
   <path d="M 0 456.532969 
L 652.869375 456.532969 
L 652.869375 0 
L 0 0 
z
" style="fill: #ffffff"/>
  </g>
  <g id="axes_1">
   <g id="patch_2">
    <path d="M 87.669375 395.593594 
L 645.669375 395.593594 
L 645.669375 15.073594 
L 87.669375 15.073594 
z
" style="fill: #ffffff"/>
   </g>
   <g id="matplotlib.axis_1">
    <g id="xtick_1">
     <g id="line2d_1">
      <defs>
       <path id="m540a553a74" d="M 0 0 
L 0 6 
" style="stroke: #262626; stroke-width: 1.25"/>
      </defs>
      <g>
       <use xlink:href="#m540a553a74" x="87.669375" y="395.593594" style="fill: #262626; stroke: #262626; stroke-width: 1.25"/>
      </g>
     </g>
     <g id="text_1">
      <!-- 0 -->
      <g style="fill: #262626" transform="translate(81.552344 420.840781) scale(0.22 -0.22)">
       <defs>
        <path id="ArialMT-30" d="M 266 2259 
Q 266 3072 433 3567 
Q 600 4063 929 4331 
Q 1259 4600 1759 4600 
Q 2128 4600 2406 4451 
Q 2684 4303 2865 4023 
Q 3047 3744 3150 3342 
Q 3253 2941 3253 2259 
Q 3253 1453 3087 958 
Q 2922 463 2592 192 
Q 2263 -78 1759 -78 
Q 1097 -78 719 397 
Q 266 969 266 2259 
z
M 844 2259 
Q 844 1131 1108 757 
Q 1372 384 1759 384 
Q 2147 384 2411 759 
Q 2675 1134 2675 2259 
Q 2675 3391 2411 3762 
Q 2147 4134 1753 4134 
Q 1366 4134 1134 3806 
Q 844 3388 844 2259 
z
" transform="scale(0.015625)"/>
       </defs>
       <use xlink:href="#ArialMT-30"/>
      </g>
     </g>
    </g>
    <g id="xtick_2">
     <g id="line2d_2">
      <g>
       <use xlink:href="#m540a553a74" x="162.069375" y="395.593594" style="fill: #262626; stroke: #262626; stroke-width: 1.25"/>
      </g>
     </g>
     <g id="text_2">
      <!-- 2 -->
      <g style="fill: #262626" transform="translate(155.952344 420.840781) scale(0.22 -0.22)">
       <defs>
        <path id="ArialMT-32" d="M 3222 541 
L 3222 0 
L 194 0 
Q 188 203 259 391 
Q 375 700 629 1000 
Q 884 1300 1366 1694 
Q 2113 2306 2375 2664 
Q 2638 3022 2638 3341 
Q 2638 3675 2398 3904 
Q 2159 4134 1775 4134 
Q 1369 4134 1125 3890 
Q 881 3647 878 3216 
L 300 3275 
Q 359 3922 746 4261 
Q 1134 4600 1788 4600 
Q 2447 4600 2831 4234 
Q 3216 3869 3216 3328 
Q 3216 3053 3103 2787 
Q 2991 2522 2730 2228 
Q 2469 1934 1863 1422 
Q 1356 997 1212 845 
Q 1069 694 975 541 
L 3222 541 
z
" transform="scale(0.015625)"/>
       </defs>
       <use xlink:href="#ArialMT-32"/>
      </g>
     </g>
    </g>
    <g id="xtick_3">
     <g id="line2d_3">
      <g>
       <use xlink:href="#m540a553a74" x="236.469375" y="395.593594" style="fill: #262626; stroke: #262626; stroke-width: 1.25"/>
      </g>
     </g>
     <g id="text_3">
      <!-- 4 -->
      <g style="fill: #262626" transform="translate(230.352344 420.840781) scale(0.22 -0.22)">
       <defs>
        <path id="ArialMT-34" d="M 2069 0 
L 2069 1097 
L 81 1097 
L 81 1613 
L 2172 4581 
L 2631 4581 
L 2631 1613 
L 3250 1613 
L 3250 1097 
L 2631 1097 
L 2631 0 
L 2069 0 
z
M 2069 1613 
L 2069 3678 
L 634 1613 
L 2069 1613 
z
" transform="scale(0.015625)"/>
       </defs>
       <use xlink:href="#ArialMT-34"/>
      </g>
     </g>
    </g>
    <g id="xtick_4">
     <g id="line2d_4">
      <g>
       <use xlink:href="#m540a553a74" x="310.869375" y="395.593594" style="fill: #262626; stroke: #262626; stroke-width: 1.25"/>
      </g>
     </g>
     <g id="text_4">
      <!-- 6 -->
      <g style="fill: #262626" transform="translate(304.752344 420.840781) scale(0.22 -0.22)">
       <defs>
        <path id="ArialMT-36" d="M 3184 3459 
L 2625 3416 
Q 2550 3747 2413 3897 
Q 2184 4138 1850 4138 
Q 1581 4138 1378 3988 
Q 1113 3794 959 3422 
Q 806 3050 800 2363 
Q 1003 2672 1297 2822 
Q 1591 2972 1913 2972 
Q 2475 2972 2870 2558 
Q 3266 2144 3266 1488 
Q 3266 1056 3080 686 
Q 2894 316 2569 119 
Q 2244 -78 1831 -78 
Q 1128 -78 684 439 
Q 241 956 241 2144 
Q 241 3472 731 4075 
Q 1159 4600 1884 4600 
Q 2425 4600 2770 4297 
Q 3116 3994 3184 3459 
z
M 888 1484 
Q 888 1194 1011 928 
Q 1134 663 1356 523 
Q 1578 384 1822 384 
Q 2178 384 2434 671 
Q 2691 959 2691 1453 
Q 2691 1928 2437 2201 
Q 2184 2475 1800 2475 
Q 1419 2475 1153 2201 
Q 888 1928 888 1484 
z
" transform="scale(0.015625)"/>
       </defs>
       <use xlink:href="#ArialMT-36"/>
      </g>
     </g>
    </g>
    <g id="xtick_5">
     <g id="line2d_5">
      <g>
       <use xlink:href="#m540a553a74" x="385.269375" y="395.593594" style="fill: #262626; stroke: #262626; stroke-width: 1.25"/>
      </g>
     </g>
     <g id="text_5">
      <!-- 8 -->
      <g style="fill: #262626" transform="translate(379.152344 420.840781) scale(0.22 -0.22)">
       <defs>
        <path id="ArialMT-38" d="M 1131 2484 
Q 781 2613 612 2850 
Q 444 3088 444 3419 
Q 444 3919 803 4259 
Q 1163 4600 1759 4600 
Q 2359 4600 2725 4251 
Q 3091 3903 3091 3403 
Q 3091 3084 2923 2848 
Q 2756 2613 2416 2484 
Q 2838 2347 3058 2040 
Q 3278 1734 3278 1309 
Q 3278 722 2862 322 
Q 2447 -78 1769 -78 
Q 1091 -78 675 323 
Q 259 725 259 1325 
Q 259 1772 486 2073 
Q 713 2375 1131 2484 
z
M 1019 3438 
Q 1019 3113 1228 2906 
Q 1438 2700 1772 2700 
Q 2097 2700 2305 2904 
Q 2513 3109 2513 3406 
Q 2513 3716 2298 3927 
Q 2084 4138 1766 4138 
Q 1444 4138 1231 3931 
Q 1019 3725 1019 3438 
z
M 838 1322 
Q 838 1081 952 856 
Q 1066 631 1291 507 
Q 1516 384 1775 384 
Q 2178 384 2440 643 
Q 2703 903 2703 1303 
Q 2703 1709 2433 1975 
Q 2163 2241 1756 2241 
Q 1359 2241 1098 1978 
Q 838 1716 838 1322 
z
" transform="scale(0.015625)"/>
       </defs>
       <use xlink:href="#ArialMT-38"/>
      </g>
     </g>
    </g>
    <g id="xtick_6">
     <g id="line2d_6">
      <g>
       <use xlink:href="#m540a553a74" x="459.669375" y="395.593594" style="fill: #262626; stroke: #262626; stroke-width: 1.25"/>
      </g>
     </g>
     <g id="text_6">
      <!-- 10 -->
      <g style="fill: #262626" transform="translate(447.435313 420.840781) scale(0.22 -0.22)">
       <defs>
        <path id="ArialMT-31" d="M 2384 0 
L 1822 0 
L 1822 3584 
Q 1619 3391 1289 3197 
Q 959 3003 697 2906 
L 697 3450 
Q 1169 3672 1522 3987 
Q 1875 4303 2022 4600 
L 2384 4600 
L 2384 0 
z
" transform="scale(0.015625)"/>
       </defs>
       <use xlink:href="#ArialMT-31"/>
       <use xlink:href="#ArialMT-30" x="55.615234"/>
      </g>
     </g>
    </g>
    <g id="xtick_7">
     <g id="line2d_7">
      <g>
       <use xlink:href="#m540a553a74" x="534.069375" y="395.593594" style="fill: #262626; stroke: #262626; stroke-width: 1.25"/>
      </g>
     </g>
     <g id="text_7">
      <!-- 12 -->
      <g style="fill: #262626" transform="translate(521.835312 420.840781) scale(0.22 -0.22)">
       <use xlink:href="#ArialMT-31"/>
       <use xlink:href="#ArialMT-32" x="55.615234"/>
      </g>
     </g>
    </g>
    <g id="xtick_8">
     <g id="line2d_8">
      <g>
       <use xlink:href="#m540a553a74" x="608.469375" y="395.593594" style="fill: #262626; stroke: #262626; stroke-width: 1.25"/>
      </g>
     </g>
     <g id="text_8">
      <!-- 14 -->
      <g style="fill: #262626" transform="translate(596.235313 420.840781) scale(0.22 -0.22)">
       <use xlink:href="#ArialMT-31"/>
       <use xlink:href="#ArialMT-34" x="55.615234"/>
      </g>
     </g>
    </g>
    <g id="text_9">
     <!-- $r_{ij}$ -->
     <g style="fill: #262626" transform="translate(357.539375 442.512969) scale(0.22 -0.22)">
      <defs>
       <path id="DejaVuSans-Oblique-72" d="M 2853 2969 
Q 2766 3016 2653 3041 
Q 2541 3066 2413 3066 
Q 1953 3066 1609 2717 
Q 1266 2369 1153 1784 
L 800 0 
L 225 0 
L 909 3500 
L 1484 3500 
L 1375 2956 
Q 1603 3259 1920 3421 
Q 2238 3584 2597 3584 
Q 2691 3584 2781 3573 
Q 2872 3563 2963 3538 
L 2853 2969 
z
" transform="scale(0.015625)"/>
       <path id="DejaVuSans-Oblique-69" d="M 1172 4863 
L 1747 4863 
L 1606 4134 
L 1031 4134 
L 1172 4863 
z
M 909 3500 
L 1484 3500 
L 800 0 
L 225 0 
L 909 3500 
z
" transform="scale(0.015625)"/>
       <path id="DejaVuSans-Oblique-6a" d="M 928 3500 
L 1503 3500 
L 813 -63 
L 809 -78 
Q 694 -675 544 -897 
Q 403 -1106 132 -1218 
Q -138 -1331 -506 -1331 
L -722 -1331 
L -628 -844 
L -481 -844 
Q -144 -844 -1 -703 
Q 141 -563 238 -63 
L 928 3500 
z
M 1197 4863 
L 1772 4863 
L 1631 4134 
L 1056 4134 
L 1197 4863 
z
" transform="scale(0.015625)"/>
      </defs>
      <use xlink:href="#DejaVuSans-Oblique-72"/>
      <use xlink:href="#DejaVuSans-Oblique-69" transform="translate(41.113281 -16.40625) scale(0.7)"/>
      <use xlink:href="#DejaVuSans-Oblique-6a" transform="translate(60.561523 -16.40625) scale(0.7)"/>
     </g>
    </g>
   </g>
   <g id="matplotlib.axis_2">
    <g id="ytick_1">
     <g id="line2d_9">
      <defs>
       <path id="m1291d751c3" d="M 0 0 
L -6 0 
" style="stroke: #262626; stroke-width: 1.25"/>
      </defs>
      <g>
       <use xlink:href="#m1291d751c3" x="87.669375" y="395.593594" style="fill: #262626; stroke: #262626; stroke-width: 1.25"/>
      </g>
     </g>
     <g id="text_10">
      <!-- −0.8 -->
      <g style="fill: #262626" transform="translate(34.74 403.467187) scale(0.22 -0.22)">
       <defs>
        <path id="ArialMT-2212" d="M 3381 1997 
L 356 1997 
L 356 2522 
L 3381 2522 
L 3381 1997 
z
" transform="scale(0.015625)"/>
        <path id="ArialMT-2e" d="M 581 0 
L 581 641 
L 1222 641 
L 1222 0 
L 581 0 
z
" transform="scale(0.015625)"/>
       </defs>
       <use xlink:href="#ArialMT-2212"/>
       <use xlink:href="#ArialMT-30" x="58.398438"/>
       <use xlink:href="#ArialMT-2e" x="114.013672"/>
       <use xlink:href="#ArialMT-38" x="141.796875"/>
      </g>
     </g>
    </g>
    <g id="ytick_2">
     <g id="line2d_10">
      <g>
       <use xlink:href="#m1291d751c3" x="87.669375" y="332.173594" style="fill: #262626; stroke: #262626; stroke-width: 1.25"/>
      </g>
     </g>
     <g id="text_11">
      <!-- −0.6 -->
      <g style="fill: #262626" transform="translate(34.74 340.047187) scale(0.22 -0.22)">
       <use xlink:href="#ArialMT-2212"/>
       <use xlink:href="#ArialMT-30" x="58.398438"/>
       <use xlink:href="#ArialMT-2e" x="114.013672"/>
       <use xlink:href="#ArialMT-36" x="141.796875"/>
      </g>
     </g>
    </g>
    <g id="ytick_3">
     <g id="line2d_11">
      <g>
       <use xlink:href="#m1291d751c3" x="87.669375" y="268.753594" style="fill: #262626; stroke: #262626; stroke-width: 1.25"/>
      </g>
     </g>
     <g id="text_12">
      <!-- −0.4 -->
      <g style="fill: #262626" transform="translate(34.74 276.627187) scale(0.22 -0.22)">
       <use xlink:href="#ArialMT-2212"/>
       <use xlink:href="#ArialMT-30" x="58.398438"/>
       <use xlink:href="#ArialMT-2e" x="114.013672"/>
       <use xlink:href="#ArialMT-34" x="141.796875"/>
      </g>
     </g>
    </g>
    <g id="ytick_4">
     <g id="line2d_12">
      <g>
       <use xlink:href="#m1291d751c3" x="87.669375" y="205.333594" style="fill: #262626; stroke: #262626; stroke-width: 1.25"/>
      </g>
     </g>
     <g id="text_13">
      <!-- −0.2 -->
      <g style="fill: #262626" transform="translate(34.74 213.207187) scale(0.22 -0.22)">
       <use xlink:href="#ArialMT-2212"/>
       <use xlink:href="#ArialMT-30" x="58.398438"/>
       <use xlink:href="#ArialMT-2e" x="114.013672"/>
       <use xlink:href="#ArialMT-32" x="141.796875"/>
      </g>
     </g>
    </g>
    <g id="ytick_5">
     <g id="line2d_13">
      <g>
       <use xlink:href="#m1291d751c3" x="87.669375" y="141.913594" style="fill: #262626; stroke: #262626; stroke-width: 1.25"/>
      </g>
     </g>
     <g id="text_14">
      <!-- 0.0 -->
      <g style="fill: #262626" transform="translate(47.589375 149.787187) scale(0.22 -0.22)">
       <use xlink:href="#ArialMT-30"/>
       <use xlink:href="#ArialMT-2e" x="55.615234"/>
       <use xlink:href="#ArialMT-30" x="83.398438"/>
      </g>
     </g>
    </g>
    <g id="ytick_6">
     <g id="line2d_14">
      <g>
       <use xlink:href="#m1291d751c3" x="87.669375" y="78.493594" style="fill: #262626; stroke: #262626; stroke-width: 1.25"/>
      </g>
     </g>
     <g id="text_15">
      <!-- 0.2 -->
      <g style="fill: #262626" transform="translate(47.589375 86.367188) scale(0.22 -0.22)">
       <use xlink:href="#ArialMT-30"/>
       <use xlink:href="#ArialMT-2e" x="55.615234"/>
       <use xlink:href="#ArialMT-32" x="83.398438"/>
      </g>
     </g>
    </g>
    <g id="ytick_7">
     <g id="line2d_15">
      <g>
       <use xlink:href="#m1291d751c3" x="87.669375" y="15.073594" style="fill: #262626; stroke: #262626; stroke-width: 1.25"/>
      </g>
     </g>
     <g id="text_16">
      <!-- 0.4 -->
      <g style="fill: #262626" transform="translate(47.589375 22.947187) scale(0.22 -0.22)">
       <use xlink:href="#ArialMT-30"/>
       <use xlink:href="#ArialMT-2e" x="55.615234"/>
       <use xlink:href="#ArialMT-34" x="83.398438"/>
      </g>
     </g>
    </g>
    <g id="text_17">
     <!-- $V_{ij}(r_{ij})$ -->
     <g style="fill: #262626" transform="translate(23.92 235.143594) rotate(-90) scale(0.22 -0.22)">
      <defs>
       <path id="DejaVuSans-Oblique-56" d="M 1319 0 
L 500 4666 
L 1119 4666 
L 1797 653 
L 4063 4666 
L 4750 4666 
L 2053 0 
L 1319 0 
z
" transform="scale(0.015625)"/>
       <path id="DejaVuSans-28" d="M 1984 4856 
Q 1566 4138 1362 3434 
Q 1159 2731 1159 2009 
Q 1159 1288 1364 580 
Q 1569 -128 1984 -844 
L 1484 -844 
Q 1016 -109 783 600 
Q 550 1309 550 2009 
Q 550 2706 781 3412 
Q 1013 4119 1484 4856 
L 1984 4856 
z
" transform="scale(0.015625)"/>
       <path id="DejaVuSans-29" d="M 513 4856 
L 1013 4856 
Q 1481 4119 1714 3412 
Q 1947 2706 1947 2009 
Q 1947 1309 1714 600 
Q 1481 -109 1013 -844 
L 513 -844 
Q 928 -128 1133 580 
Q 1338 1288 1338 2009 
Q 1338 2731 1133 3434 
Q 928 4138 513 4856 
z
" transform="scale(0.015625)"/>
      </defs>
      <use xlink:href="#DejaVuSans-Oblique-56" transform="translate(0 0.125)"/>
      <use xlink:href="#DejaVuSans-Oblique-69" transform="translate(68.408203 -16.28125) scale(0.7)"/>
      <use xlink:href="#DejaVuSans-Oblique-6a" transform="translate(87.856445 -16.28125) scale(0.7)"/>
      <use xlink:href="#DejaVuSans-28" transform="translate(110.039062 0.125)"/>
      <use xlink:href="#DejaVuSans-Oblique-72" transform="translate(149.052734 0.125)"/>
      <use xlink:href="#DejaVuSans-Oblique-69" transform="translate(190.166016 -16.28125) scale(0.7)"/>
      <use xlink:href="#DejaVuSans-Oblique-6a" transform="translate(209.614258 -16.28125) scale(0.7)"/>
      <use xlink:href="#DejaVuSans-29" transform="translate(231.796875 0.125)"/>
     </g>
    </g>
   </g>
   <g id="line2d_16">
    <path d="M 87.669375 141.913594 
L 93.305739 177.031354 
L 98.942102 206.163516 
L 104.578466 230.182912 
L 110.21483 249.838728 
L 115.851193 265.773907 
L 121.487557 278.540123 
L 127.12392 288.610632 
L 132.760284 296.391327 
L 138.396648 302.23023 
L 144.033011 306.425655 
L 149.669375 309.233219 
L 155.305739 310.871868 
L 160.942102 311.529054 
L 166.578466 311.365184 
L 172.21483 310.517444 
L 177.851193 309.103084 
L 183.487557 307.222237 
L 189.12392 304.960349 
L 194.760284 302.390259 
L 200.396648 299.57399 
L 206.033011 296.564287 
L 211.669375 293.405939 
L 217.305739 290.136911 
L 222.942102 286.789322 
L 228.578466 283.390282 
L 234.21483 279.962607 
L 239.851193 276.525444 
L 245.487557 273.094792 
L 251.12392 269.683968 
L 256.760284 266.303988 
L 262.396648 262.963909 
L 268.033011 259.671115 
L 273.669375 256.431562 
L 279.305739 253.249994 
L 284.942102 250.130124 
L 290.578466 247.074786 
L 296.21483 244.086075 
L 301.851193 241.165456 
L 307.487557 238.313866 
L 313.12392 235.531795 
L 318.760284 232.819362 
L 324.396648 230.176372 
L 330.033011 227.602372 
L 335.669375 225.096694 
L 341.305739 222.658496 
L 346.942102 220.28679 
L 352.578466 217.980477 
L 358.21483 215.738362 
L 363.851193 213.559183 
L 369.487557 211.441622 
L 375.12392 209.384321 
L 380.760284 207.385896 
L 386.396648 205.444945 
L 392.033011 203.560058 
L 397.669375 201.729826 
L 403.305739 199.952843 
L 408.942102 198.227713 
L 414.578466 196.553056 
L 420.21483 194.927508 
L 425.851193 193.349727 
L 431.487557 191.818393 
L 437.12392 190.332211 
L 442.760284 188.889911 
L 448.396648 187.49025 
L 454.033011 186.132014 
L 459.669375 184.814016 
L 465.305739 183.535097 
L 470.942102 182.294128 
L 476.578466 181.090007 
L 482.21483 179.921662 
L 487.851193 178.788048 
L 493.487557 177.688149 
L 499.12392 176.620974 
L 504.760284 175.585563 
L 510.396648 174.58098 
L 516.033011 173.606315 
L 521.669375 172.660686 
L 527.305739 171.743232 
L 532.942102 170.853121 
L 538.578466 169.989542 
L 544.21483 169.151709 
L 549.851193 168.338856 
L 555.487557 167.550243 
L 561.12392 166.785149 
L 566.760284 166.042875 
L 572.396648 165.322741 
L 578.033011 164.624091 
L 583.669375 163.946283 
L 589.305739 163.288697 
L 594.942102 162.650731 
L 600.578466 162.031801 
L 606.21483 161.431339 
L 611.851193 160.848794 
L 617.487557 160.283634 
L 623.12392 159.735338 
L 628.760284 159.203406 
L 634.396648 158.687348 
L 640.033011 158.186691 
L 645.669375 157.700976 
" clip-path="url(#pefb73362be)" style="fill: none; stroke: #ffa500; stroke-width: 3; stroke-linecap: round"/>
   </g>
   <g id="line2d_17">
    <path d="M 89.880967 -1 
L 93.305739 23.213833 
L 98.942102 56.937217 
L 104.578466 85.410794 
L 110.21483 109.387839 
L 115.851193 129.515266 
L 121.487557 146.348598 
L 127.12392 160.364826 
L 132.760284 171.973465 
L 138.396648 181.526053 
L 144.033011 189.324316 
L 149.669375 195.627179 
L 155.305739 200.656798 
L 160.942102 204.603738 
L 166.578466 207.631428 
L 172.21483 209.879985 
L 177.851193 211.469502 
L 183.487557 212.502871 
L 189.12392 213.068213 
L 194.760284 213.240965 
L 200.396648 213.085669 
L 206.033011 212.657512 
L 211.669375 212.003655 
L 217.305739 211.164363 
L 222.942102 210.173986 
L 228.578466 209.061798 
L 234.21483 207.852717 
L 239.851193 206.567925 
L 245.487557 205.2254 
L 251.12392 203.840376 
L 256.760284 202.425728 
L 262.396648 200.992319 
L 268.033011 199.549283 
L 273.669375 198.104276 
L 279.305739 196.66369 
L 284.942102 195.232836 
L 290.578466 193.8161 
L 296.21483 192.417081 
L 301.851193 191.038704 
L 307.487557 189.683321 
L 313.12392 188.3528 
L 318.760284 187.048588 
L 324.396648 185.771787 
L 330.033011 184.523197 
L 335.669375 183.303368 
L 341.305739 182.112637 
L 346.942102 180.951165 
L 352.578466 179.818961 
L 358.21483 178.71591 
L 363.851193 177.641796 
L 369.487557 176.596314 
L 375.12392 175.579093 
L 380.760284 174.589703 
L 386.396648 173.627669 
L 392.033011 172.692481 
L 397.669375 171.783599 
L 403.305739 170.900466 
L 408.942102 170.042506 
L 414.578466 169.209135 
L 420.21483 168.399762 
L 425.851193 167.613794 
L 431.487557 166.850639 
L 437.12392 166.109707 
L 442.760284 165.390412 
L 448.396648 164.692176 
L 454.033011 164.014428 
L 459.669375 163.356607 
L 465.305739 162.718159 
L 470.942102 162.098544 
L 476.578466 161.497232 
L 482.21483 160.913701 
L 487.851193 160.347446 
L 493.487557 159.797971 
L 499.12392 159.264792 
L 504.760284 158.747437 
L 510.396648 158.245446 
L 516.033011 157.758373 
L 521.669375 157.28578 
L 527.305739 156.827245 
L 532.942102 156.382353 
L 538.578466 155.950705 
L 544.21483 155.53191 
L 549.851193 155.125588 
L 555.487557 154.731371 
L 561.12392 154.348901 
L 566.760284 153.97783 
L 572.396648 153.61782 
L 578.033011 153.268543 
L 583.669375 152.929681 
L 589.305739 152.600925 
L 594.942102 152.281973 
L 600.578466 151.972534 
L 606.21483 151.672326 
L 611.851193 151.381074 
L 617.487557 151.09851 
L 623.12392 150.824377 
L 628.760284 150.558423 
L 634.396648 150.300405 
L 640.033011 150.050086 
L 645.669375 149.807236 
" clip-path="url(#pefb73362be)" style="fill: none; stroke: #0000ff; stroke-width: 3; stroke-linecap: round"/>
   </g>
   <g id="patch_3">
    <path d="M 87.669375 395.593594 
L 87.669375 15.073594 
" style="fill: none; stroke: #262626; stroke-width: 1.25; stroke-linejoin: miter; stroke-linecap: square"/>
   </g>
   <g id="patch_4">
    <path d="M 87.669375 395.593594 
L 645.669375 395.593594 
" style="fill: none; stroke: #262626; stroke-width: 1.25; stroke-linejoin: miter; stroke-linecap: square"/>
   </g>
   <g id="patch_5">
    <path d="M 162.296101 131.070685 
Q 176.180709 164.031699 190.065317 196.992713 
L 193.751607 195.439888 
Q 193.315917 202.133444 192.880227 208.826999 
Q 187.786482 204.462681 182.692736 200.098364 
L 186.379026 198.545538 
Q 172.494419 165.584524 158.609811 132.62351 
L 162.296101 131.070685 
z
" style="stroke-dasharray: 3.7,1.6; stroke-dashoffset: 0; stroke: #ffffff; stroke-linecap: round"/>
   </g>
   <g id="text_18">
    <!-- $r_{relax}$ =  $2.9$, $V_{ij}$ = $-0.2$ -->
    <g style="fill: #262626" transform="translate(157.539582 118.110967) scale(0.22 -0.22)">
     <defs>
      <path id="DejaVuSans-Oblique-65" d="M 3078 2063 
Q 3088 2113 3092 2166 
Q 3097 2219 3097 2272 
Q 3097 2653 2873 2875 
Q 2650 3097 2266 3097 
Q 1838 3097 1509 2826 
Q 1181 2556 1013 2059 
L 3078 2063 
z
M 3578 1613 
L 903 1613 
Q 884 1494 878 1425 
Q 872 1356 872 1306 
Q 872 872 1139 634 
Q 1406 397 1894 397 
Q 2269 397 2603 481 
Q 2938 566 3225 728 
L 3116 159 
Q 2806 34 2476 -28 
Q 2147 -91 1806 -91 
Q 1078 -91 686 257 
Q 294 606 294 1247 
Q 294 1794 489 2264 
Q 684 2734 1063 3103 
Q 1306 3334 1642 3459 
Q 1978 3584 2356 3584 
Q 2950 3584 3301 3228 
Q 3653 2872 3653 2272 
Q 3653 2128 3634 1964 
Q 3616 1800 3578 1613 
z
" transform="scale(0.015625)"/>
      <path id="DejaVuSans-Oblique-6c" d="M 1172 4863 
L 1747 4863 
L 800 0 
L 225 0 
L 1172 4863 
z
" transform="scale(0.015625)"/>
      <path id="DejaVuSans-Oblique-61" d="M 3438 1997 
L 3047 0 
L 2472 0 
L 2578 531 
Q 2325 219 2001 64 
Q 1678 -91 1281 -91 
Q 834 -91 548 182 
Q 263 456 263 884 
Q 263 1497 752 1853 
Q 1241 2209 2100 2209 
L 2900 2209 
L 2931 2363 
Q 2938 2388 2941 2417 
Q 2944 2447 2944 2509 
Q 2944 2788 2717 2942 
Q 2491 3097 2081 3097 
Q 1800 3097 1504 3025 
Q 1209 2953 897 2809 
L 997 3341 
Q 1322 3463 1633 3523 
Q 1944 3584 2234 3584 
Q 2853 3584 3176 3315 
Q 3500 3047 3500 2534 
Q 3500 2431 3484 2292 
Q 3469 2153 3438 1997 
z
M 2816 1759 
L 2241 1759 
Q 1534 1759 1195 1570 
Q 856 1381 856 984 
Q 856 709 1029 553 
Q 1203 397 1509 397 
Q 1978 397 2328 733 
Q 2678 1069 2791 1631 
L 2816 1759 
z
" transform="scale(0.015625)"/>
      <path id="DejaVuSans-Oblique-78" d="M 3841 3500 
L 2234 1784 
L 3219 0 
L 2559 0 
L 1819 1388 
L 531 0 
L -166 0 
L 1556 1844 
L 641 3500 
L 1300 3500 
L 1972 2234 
L 3144 3500 
L 3841 3500 
z
" transform="scale(0.015625)"/>
      <path id="ArialMT-20" transform="scale(0.015625)"/>
      <path id="ArialMT-3d" d="M 3381 2694 
L 356 2694 
L 356 3219 
L 3381 3219 
L 3381 2694 
z
M 3381 1303 
L 356 1303 
L 356 1828 
L 3381 1828 
L 3381 1303 
z
" transform="scale(0.015625)"/>
      <path id="DejaVuSans-32" d="M 1228 531 
L 3431 531 
L 3431 0 
L 469 0 
L 469 531 
Q 828 903 1448 1529 
Q 2069 2156 2228 2338 
Q 2531 2678 2651 2914 
Q 2772 3150 2772 3378 
Q 2772 3750 2511 3984 
Q 2250 4219 1831 4219 
Q 1534 4219 1204 4116 
Q 875 4013 500 3803 
L 500 4441 
Q 881 4594 1212 4672 
Q 1544 4750 1819 4750 
Q 2544 4750 2975 4387 
Q 3406 4025 3406 3419 
Q 3406 3131 3298 2873 
Q 3191 2616 2906 2266 
Q 2828 2175 2409 1742 
Q 1991 1309 1228 531 
z
" transform="scale(0.015625)"/>
      <path id="DejaVuSans-2e" d="M 684 794 
L 1344 794 
L 1344 0 
L 684 0 
L 684 794 
z
" transform="scale(0.015625)"/>
      <path id="DejaVuSans-39" d="M 703 97 
L 703 672 
Q 941 559 1184 500 
Q 1428 441 1663 441 
Q 2288 441 2617 861 
Q 2947 1281 2994 2138 
Q 2813 1869 2534 1725 
Q 2256 1581 1919 1581 
Q 1219 1581 811 2004 
Q 403 2428 403 3163 
Q 403 3881 828 4315 
Q 1253 4750 1959 4750 
Q 2769 4750 3195 4129 
Q 3622 3509 3622 2328 
Q 3622 1225 3098 567 
Q 2575 -91 1691 -91 
Q 1453 -91 1209 -44 
Q 966 3 703 97 
z
M 1959 2075 
Q 2384 2075 2632 2365 
Q 2881 2656 2881 3163 
Q 2881 3666 2632 3958 
Q 2384 4250 1959 4250 
Q 1534 4250 1286 3958 
Q 1038 3666 1038 3163 
Q 1038 2656 1286 2365 
Q 1534 2075 1959 2075 
z
" transform="scale(0.015625)"/>
      <path id="ArialMT-2c" d="M 569 0 
L 569 641 
L 1209 641 
L 1209 0 
Q 1209 -353 1084 -570 
Q 959 -788 688 -906 
L 531 -666 
Q 709 -588 793 -436 
Q 878 -284 888 0 
L 569 0 
z
" transform="scale(0.015625)"/>
      <path id="DejaVuSans-2212" d="M 678 2272 
L 4684 2272 
L 4684 1741 
L 678 1741 
L 678 2272 
z
" transform="scale(0.015625)"/>
      <path id="DejaVuSans-30" d="M 2034 4250 
Q 1547 4250 1301 3770 
Q 1056 3291 1056 2328 
Q 1056 1369 1301 889 
Q 1547 409 2034 409 
Q 2525 409 2770 889 
Q 3016 1369 3016 2328 
Q 3016 3291 2770 3770 
Q 2525 4250 2034 4250 
z
M 2034 4750 
Q 2819 4750 3233 4129 
Q 3647 3509 3647 2328 
Q 3647 1150 3233 529 
Q 2819 -91 2034 -91 
Q 1250 -91 836 529 
Q 422 1150 422 2328 
Q 422 3509 836 4129 
Q 1250 4750 2034 4750 
z
" transform="scale(0.015625)"/>
     </defs>
     <use xlink:href="#DejaVuSans-Oblique-72" transform="translate(0 0.78125)"/>
     <use xlink:href="#DejaVuSans-Oblique-72" transform="translate(41.113281 -15.625) scale(0.7)"/>
     <use xlink:href="#DejaVuSans-Oblique-65" transform="translate(69.892578 -15.625) scale(0.7)"/>
     <use xlink:href="#DejaVuSans-Oblique-6c" transform="translate(112.958984 -15.625) scale(0.7)"/>
     <use xlink:href="#DejaVuSans-Oblique-61" transform="translate(132.407227 -15.625) scale(0.7)"/>
     <use xlink:href="#DejaVuSans-Oblique-78" transform="translate(175.302734 -15.625) scale(0.7)"/>
     <use xlink:href="#ArialMT-20" transform="translate(219.462891 0.78125)"/>
     <use xlink:href="#ArialMT-3d" transform="translate(247.246094 0.78125)"/>
     <use xlink:href="#ArialMT-20" transform="translate(305.644531 0.78125)"/>
     <use xlink:href="#ArialMT-20" transform="translate(333.427734 0.78125)"/>
     <use xlink:href="#DejaVuSans-32" transform="translate(361.210938 0.78125)"/>
     <use xlink:href="#DejaVuSans-2e" transform="translate(424.833984 0.78125)"/>
     <use xlink:href="#DejaVuSans-39" transform="translate(456.621094 0.78125)"/>
     <use xlink:href="#ArialMT-2c" transform="translate(520.244141 0.78125)"/>
     <use xlink:href="#ArialMT-20" transform="translate(548.027344 0.78125)"/>
     <use xlink:href="#DejaVuSans-Oblique-56" transform="translate(575.810547 0.78125)"/>
     <use xlink:href="#DejaVuSans-Oblique-69" transform="translate(644.21875 -15.625) scale(0.7)"/>
     <use xlink:href="#DejaVuSans-Oblique-6a" transform="translate(663.666992 -15.625) scale(0.7)"/>
     <use xlink:href="#ArialMT-20" transform="translate(685.849609 0.78125)"/>
     <use xlink:href="#ArialMT-3d" transform="translate(713.632812 0.78125)"/>
     <use xlink:href="#ArialMT-20" transform="translate(772.03125 0.78125)"/>
     <use xlink:href="#DejaVuSans-2212" transform="translate(799.814453 0.78125)"/>
     <use xlink:href="#DejaVuSans-30" transform="translate(883.603516 0.78125)"/>
     <use xlink:href="#DejaVuSans-2e" transform="translate(947.226562 0.78125)"/>
     <use xlink:href="#DejaVuSans-32" transform="translate(973.513672 0.78125)"/>
    </g>
   </g>
   <g id="patch_6">
    <path d="M 265.253171 356.92627 
Q 221.815092 338.663594 178.377012 320.400918 
L 176.826734 324.08828 
Q 172.458623 318.997435 168.090512 313.906591 
Q 174.78404 313.466392 181.477568 313.026194 
L 179.92729 316.713556 
Q 223.36537 334.976232 266.803449 353.238908 
L 265.253171 356.92627 
z
" style="stroke-dasharray: 3.7,1.6; stroke-dashoffset: 0; stroke: #ffffff; stroke-linecap: round"/>
   </g>
   <g id="text_19">
    <!-- $r_{relax}$ =  $2.0$, $V_{ij}$ = $-0.5$ -->
    <g style="fill: #262626" transform="translate(274.108238 374.979634) scale(0.22 -0.22)">
     <defs>
      <path id="DejaVuSans-35" d="M 691 4666 
L 3169 4666 
L 3169 4134 
L 1269 4134 
L 1269 2991 
Q 1406 3038 1543 3061 
Q 1681 3084 1819 3084 
Q 2600 3084 3056 2656 
Q 3513 2228 3513 1497 
Q 3513 744 3044 326 
Q 2575 -91 1722 -91 
Q 1428 -91 1123 -41 
Q 819 9 494 109 
L 494 744 
Q 775 591 1075 516 
Q 1375 441 1709 441 
Q 2250 441 2565 725 
Q 2881 1009 2881 1497 
Q 2881 1984 2565 2268 
Q 2250 2553 1709 2553 
Q 1456 2553 1204 2497 
Q 953 2441 691 2322 
L 691 4666 
z
" transform="scale(0.015625)"/>
     </defs>
     <use xlink:href="#DejaVuSans-Oblique-72" transform="translate(0 0.78125)"/>
     <use xlink:href="#DejaVuSans-Oblique-72" transform="translate(41.113281 -15.625) scale(0.7)"/>
     <use xlink:href="#DejaVuSans-Oblique-65" transform="translate(69.892578 -15.625) scale(0.7)"/>
     <use xlink:href="#DejaVuSans-Oblique-6c" transform="translate(112.958984 -15.625) scale(0.7)"/>
     <use xlink:href="#DejaVuSans-Oblique-61" transform="translate(132.407227 -15.625) scale(0.7)"/>
     <use xlink:href="#DejaVuSans-Oblique-78" transform="translate(175.302734 -15.625) scale(0.7)"/>
     <use xlink:href="#ArialMT-20" transform="translate(219.462891 0.78125)"/>
     <use xlink:href="#ArialMT-3d" transform="translate(247.246094 0.78125)"/>
     <use xlink:href="#ArialMT-20" transform="translate(305.644531 0.78125)"/>
     <use xlink:href="#ArialMT-20" transform="translate(333.427734 0.78125)"/>
     <use xlink:href="#DejaVuSans-32" transform="translate(361.210938 0.78125)"/>
     <use xlink:href="#DejaVuSans-2e" transform="translate(424.833984 0.78125)"/>
     <use xlink:href="#DejaVuSans-30" transform="translate(456.621094 0.78125)"/>
     <use xlink:href="#ArialMT-2c" transform="translate(520.244141 0.78125)"/>
     <use xlink:href="#ArialMT-20" transform="translate(548.027344 0.78125)"/>
     <use xlink:href="#DejaVuSans-Oblique-56" transform="translate(575.810547 0.78125)"/>
     <use xlink:href="#DejaVuSans-Oblique-69" transform="translate(644.21875 -15.625) scale(0.7)"/>
     <use xlink:href="#DejaVuSans-Oblique-6a" transform="translate(663.666992 -15.625) scale(0.7)"/>
     <use xlink:href="#ArialMT-20" transform="translate(685.849609 0.78125)"/>
     <use xlink:href="#ArialMT-3d" transform="translate(713.632812 0.78125)"/>
     <use xlink:href="#ArialMT-20" transform="translate(772.03125 0.78125)"/>
     <use xlink:href="#DejaVuSans-2212" transform="translate(799.814453 0.78125)"/>
     <use xlink:href="#DejaVuSans-30" transform="translate(883.603516 0.78125)"/>
     <use xlink:href="#DejaVuSans-2e" transform="translate(947.226562 0.78125)"/>
     <use xlink:href="#DejaVuSans-35" transform="translate(979.013672 0.78125)"/>
    </g>
   </g>
   <g id="legend_1">
    <g id="patch_7">
     <path d="M 489.541562 94.912969 
L 630.269375 94.912969 
Q 634.669375 94.912969 634.669375 90.512969 
L 634.669375 30.473594 
Q 634.669375 26.073594 630.269375 26.073594 
L 489.541562 26.073594 
Q 485.141562 26.073594 485.141562 30.473594 
L 485.141562 90.512969 
Q 485.141562 94.912969 489.541562 94.912969 
z
" style="fill: #ffffff; opacity: 0.8; stroke: #cccccc; stroke-linejoin: miter"/>
    </g>
    <g id="line2d_18">
     <path d="M 493.941562 42.920781 
L 515.941562 42.920781 
L 537.941562 42.920781 
" style="fill: none; stroke: #ffa500; stroke-width: 3; stroke-linecap: round"/>
    </g>
    <g id="text_20">
     <!-- S = 1 -->
     <g style="fill: #262626" transform="translate(555.541562 50.620781) scale(0.22 -0.22)">
      <defs>
       <path id="ArialMT-53" d="M 288 1472 
L 859 1522 
Q 900 1178 1048 958 
Q 1197 738 1509 602 
Q 1822 466 2213 466 
Q 2559 466 2825 569 
Q 3091 672 3220 851 
Q 3350 1031 3350 1244 
Q 3350 1459 3225 1620 
Q 3100 1781 2813 1891 
Q 2628 1963 1997 2114 
Q 1366 2266 1113 2400 
Q 784 2572 623 2826 
Q 463 3081 463 3397 
Q 463 3744 659 4045 
Q 856 4347 1234 4503 
Q 1613 4659 2075 4659 
Q 2584 4659 2973 4495 
Q 3363 4331 3572 4012 
Q 3781 3694 3797 3291 
L 3216 3247 
Q 3169 3681 2898 3903 
Q 2628 4125 2100 4125 
Q 1550 4125 1298 3923 
Q 1047 3722 1047 3438 
Q 1047 3191 1225 3031 
Q 1400 2872 2139 2705 
Q 2878 2538 3153 2413 
Q 3553 2228 3743 1945 
Q 3934 1663 3934 1294 
Q 3934 928 3725 604 
Q 3516 281 3123 101 
Q 2731 -78 2241 -78 
Q 1619 -78 1198 103 
Q 778 284 539 648 
Q 300 1013 288 1472 
z
" transform="scale(0.015625)"/>
      </defs>
      <use xlink:href="#ArialMT-53"/>
      <use xlink:href="#ArialMT-20" x="66.699219"/>
      <use xlink:href="#ArialMT-3d" x="94.482422"/>
      <use xlink:href="#ArialMT-20" x="152.880859"/>
      <use xlink:href="#ArialMT-31" x="180.664062"/>
     </g>
    </g>
    <g id="line2d_19">
     <path d="M 493.941562 74.040469 
L 515.941562 74.040469 
L 537.941562 74.040469 
" style="fill: none; stroke: #0000ff; stroke-width: 3; stroke-linecap: round"/>
    </g>
    <g id="text_21">
     <!-- S = 0.5 -->
     <g style="fill: #262626" transform="translate(555.541562 81.740469) scale(0.22 -0.22)">
      <defs>
       <path id="ArialMT-35" d="M 266 1200 
L 856 1250 
Q 922 819 1161 601 
Q 1400 384 1738 384 
Q 2144 384 2425 690 
Q 2706 997 2706 1503 
Q 2706 1984 2436 2262 
Q 2166 2541 1728 2541 
Q 1456 2541 1237 2417 
Q 1019 2294 894 2097 
L 366 2166 
L 809 4519 
L 3088 4519 
L 3088 3981 
L 1259 3981 
L 1013 2750 
Q 1425 3038 1878 3038 
Q 2478 3038 2890 2622 
Q 3303 2206 3303 1553 
Q 3303 931 2941 478 
Q 2500 -78 1738 -78 
Q 1113 -78 717 272 
Q 322 622 266 1200 
z
" transform="scale(0.015625)"/>
      </defs>
      <use xlink:href="#ArialMT-53"/>
      <use xlink:href="#ArialMT-20" x="66.699219"/>
      <use xlink:href="#ArialMT-3d" x="94.482422"/>
      <use xlink:href="#ArialMT-20" x="152.880859"/>
      <use xlink:href="#ArialMT-30" x="180.664062"/>
      <use xlink:href="#ArialMT-2e" x="236.279297"/>
      <use xlink:href="#ArialMT-35" x="264.0625"/>
     </g>
    </g>
   </g>
  </g>
 </g>
 <defs>
  <clipPath id="pefb73362be">
   <rect x="87.669375" y="15.073594" width="558" height="380.52"/>
  </clipPath>
 </defs>
</svg>
